<?xml version="1.0" encoding="UTF-8"?>
<svg xmlns="http://www.w3.org/2000/svg" xmlns:xlink="http://www.w3.org/1999/xlink" width="150px" height="150px" viewBox="0 0 150 150" version="1.1">
<g id="surface1">
<path style=" stroke:none;fill-rule:nonzero;fill:rgb(0%,0%,0%);fill-opacity:1;" d="M 75 2.34375 C 34.9375 2.34375 2.34375 34.9375 2.34375 75 C 2.34375 115.0625 34.9375 147.65625 75 147.65625 C 115.0625 147.65625 147.65625 115.0625 147.65625 75 C 147.65625 34.9375 115.0625 2.34375 75 2.34375 Z M 123.039062 35.847656 C 131.679688 46.410156 136.914062 59.859375 137.050781 74.507812 C 135.007812 74.074219 114.488281 69.914062 93.839844 72.511719 C 92.152344 68.398438 90.5625 64.777344 88.382812 60.320312 C 111.332031 50.949219 121.730469 37.621094 123.039062 35.847656 Z M 116.140625 28.671875 C 115.023438 30.261719 105.679688 42.820312 83.613281 51.089844 C 73.445312 32.40625 62.171875 17.058594 60.457031 14.761719 C 80.136719 10.015625 100.875 15.132812 116.140625 28.671875 Z M 48.617188 18.929688 C 50.25 21.175781 61.339844 36.542969 71.625 54.824219 C 42.59375 62.53125 17.027344 62.421875 14.25 62.382812 C 18.273438 43.125 31.253906 27.121094 48.617188 18.929688 Z M 12.941406 75.09375 C 12.941406 74.460938 12.953125 73.828125 12.972656 73.199219 C 15.6875 73.253906 45.761719 73.640625 76.753906 64.367188 C 78.53125 67.84375 80.226562 71.371094 81.785156 74.898438 C 59.34375 81.21875 38.953125 99.367188 28.894531 116.589844 C 18.984375 105.585938 12.941406 91.035156 12.941406 75.09375 Z M 36.90625 124.054688 C 43.390625 110.800781 60.984375 93.695312 86.003906 85.160156 C 94.714844 107.800781 98.320312 126.777344 99.242188 132.222656 C 79.285156 140.722656 55.292969 138.390625 36.90625 124.054688 Z M 109.675781 126.539062 C 109.039062 122.765625 105.734375 104.597656 97.617188 82.292969 C 117.066406 79.179688 134.152344 84.273438 136.273438 84.945312 C 133.507812 102.214844 123.597656 117.125 109.675781 126.539062 Z M 109.675781 126.539062 "/>
</g>
</svg>
